<svg xmlns="http://www.w3.org/2000/svg" xmlns:xlink="http://www.w3.org/1999/xlink" width="120" zoomAndPan="magnify" viewBox="0 0 90 89.999999" height="120" preserveAspectRatio="xMidYMid meet" version="1.0"><defs><clipPath id="d6835aaad3"><path d="M 0 37.148438 L 90 37.148438 L 90 52.695312 L 0 52.695312 Z M 0 37.148438 " clip-rule="nonzero"/></clipPath><clipPath id="cd86a9f0b4"><path d="M 4.140625 37.148438 L 85.859375 37.148438 C 86.957031 37.148438 88.011719 37.585938 88.789062 38.363281 C 89.5625 39.136719 90 40.191406 90 41.289062 L 90 48.554688 C 90 49.652344 89.5625 50.707031 88.789062 51.480469 C 88.011719 52.257812 86.957031 52.695312 85.859375 52.695312 L 4.140625 52.695312 C 3.042969 52.695312 1.988281 52.257812 1.210938 51.480469 C 0.4375 50.707031 0 49.652344 0 48.554688 L 0 41.289062 C 0 40.191406 0.4375 39.136719 1.210938 38.363281 C 1.988281 37.585938 3.042969 37.148438 4.140625 37.148438 Z M 4.140625 37.148438 " clip-rule="nonzero"/></clipPath><clipPath id="4931256358"><path d="M 0 12.550781 L 90 12.550781 L 90 28.09375 L 0 28.09375 Z M 0 12.550781 " clip-rule="nonzero"/></clipPath><clipPath id="9d33c7059b"><path d="M 4.5 12.550781 L 85.5 12.550781 C 87.984375 12.550781 90 14.5625 90 17.050781 L 90 23.59375 C 90 26.078125 87.984375 28.09375 85.5 28.09375 L 4.5 28.09375 C 2.015625 28.09375 0 26.078125 0 23.59375 L 0 17.050781 C 0 14.5625 2.015625 12.550781 4.5 12.550781 Z M 4.5 12.550781 " clip-rule="nonzero"/></clipPath><clipPath id="787ecc203f"><path d="M 0 61.695312 L 90 61.695312 L 90 77.238281 L 0 77.238281 Z M 0 61.695312 " clip-rule="nonzero"/></clipPath><clipPath id="084729d880"><path d="M 4.5 61.695312 L 85.5 61.695312 C 87.984375 61.695312 90 63.707031 90 66.195312 L 90 72.738281 C 90 75.222656 87.984375 77.238281 85.5 77.238281 L 4.5 77.238281 C 2.015625 77.238281 0 75.222656 0 72.738281 L 0 66.195312 C 0 63.707031 2.015625 61.695312 4.5 61.695312 Z M 4.5 61.695312 " clip-rule="nonzero"/></clipPath></defs><g clip-path="url(#d6835aaad3)"><g clip-path="url(#cd86a9f0b4)"><path fill="#ffffff" d="M 0 37.148438 L 90 37.148438 L 90 52.695312 L 0 52.695312 Z M 0 37.148438 " fill-opacity="1" fill-rule="nonzero"/></g></g><g clip-path="url(#4931256358)"><g clip-path="url(#9d33c7059b)"><path fill="#ffffff" d="M 0 12.550781 L 90 12.550781 L 90 28.09375 L 0 28.09375 Z M 0 12.550781 " fill-opacity="1" fill-rule="nonzero"/></g></g><g clip-path="url(#787ecc203f)"><g clip-path="url(#084729d880)"><path fill="#ffffff" d="M 0 61.695312 L 90 61.695312 L 90 77.238281 L 0 77.238281 Z M 0 61.695312 " fill-opacity="1" fill-rule="nonzero"/></g></g></svg>