<svg xmlns="http://www.w3.org/2000/svg" xmlns:xlink="http://www.w3.org/1999/xlink" width="120" zoomAndPan="magnify" viewBox="0 0 90 89.999999" height="120" preserveAspectRatio="xMidYMid meet" version="1.0"><defs><clipPath id="692202789c"><path d="M 0 0 L 90 0 L 90 27 L 0 27 Z M 0 0 " clip-rule="nonzero"/></clipPath><clipPath id="67c5c04d4d"><path d="M 4.140625 0 L 85.859375 0 C 86.957031 0 88.011719 0.4375 88.789062 1.210938 C 89.5625 1.988281 90 3.042969 90 4.140625 L 90 22.859375 C 90 23.957031 89.5625 25.011719 88.789062 25.789062 C 88.011719 26.5625 86.957031 27 85.859375 27 L 4.140625 27 C 3.042969 27 1.988281 26.5625 1.210938 25.789062 C 0.4375 25.011719 0 23.957031 0 22.859375 L 0 4.140625 C 0 3.042969 0.4375 1.988281 1.210938 1.210938 C 1.988281 0.4375 3.042969 0 4.140625 0 Z M 4.140625 0 " clip-rule="nonzero"/></clipPath><clipPath id="5297d46ff9"><path d="M 0 31.5 L 90 31.5 L 90 58.5 L 0 58.5 Z M 0 31.5 " clip-rule="nonzero"/></clipPath><clipPath id="dcf46fafa3"><path d="M 4.140625 31.5 L 85.859375 31.5 C 86.957031 31.5 88.011719 31.9375 88.789062 32.710938 C 89.5625 33.488281 90 34.542969 90 35.640625 L 90 54.359375 C 90 55.457031 89.5625 56.511719 88.789062 57.289062 C 88.011719 58.0625 86.957031 58.5 85.859375 58.5 L 4.140625 58.5 C 3.042969 58.5 1.988281 58.0625 1.210938 57.289062 C 0.4375 56.511719 0 55.457031 0 54.359375 L 0 35.640625 C 0 34.542969 0.4375 33.488281 1.210938 32.710938 C 1.988281 31.9375 3.042969 31.5 4.140625 31.5 Z M 4.140625 31.5 " clip-rule="nonzero"/></clipPath><clipPath id="d102df91ce"><path d="M 0 63 L 90 63 L 90 90 L 0 90 Z M 0 63 " clip-rule="nonzero"/></clipPath><clipPath id="e7d9da0bb6"><path d="M 4.140625 63 L 85.859375 63 C 86.957031 63 88.011719 63.4375 88.789062 64.210938 C 89.5625 64.988281 90 66.042969 90 67.140625 L 90 85.859375 C 90 86.957031 89.5625 88.011719 88.789062 88.789062 C 88.011719 89.5625 86.957031 90 85.859375 90 L 4.140625 90 C 3.042969 90 1.988281 89.5625 1.210938 88.789062 C 0.4375 88.011719 0 86.957031 0 85.859375 L 0 67.140625 C 0 66.042969 0.4375 64.988281 1.210938 64.210938 C 1.988281 63.4375 3.042969 63 4.140625 63 Z M 4.140625 63 " clip-rule="nonzero"/></clipPath></defs><g clip-path="url(#692202789c)"><g clip-path="url(#67c5c04d4d)"><path fill="#ffffff" d="M 0 0 L 90 0 L 90 27 L 0 27 Z M 0 0 " fill-opacity="1" fill-rule="nonzero"/></g></g><g clip-path="url(#5297d46ff9)"><g clip-path="url(#dcf46fafa3)"><path fill="#ffffff" d="M 0 31.5 L 90 31.5 L 90 58.5 L 0 58.5 Z M 0 31.5 " fill-opacity="1" fill-rule="nonzero"/></g></g><g clip-path="url(#d102df91ce)"><g clip-path="url(#e7d9da0bb6)"><path fill="#ffffff" d="M 0 63 L 90 63 L 90 90 L 0 90 Z M 0 63 " fill-opacity="1" fill-rule="nonzero"/></g></g></svg>