<svg xmlns="http://www.w3.org/2000/svg" xmlns:xlink="http://www.w3.org/1999/xlink" width="120" zoomAndPan="magnify" viewBox="0 0 90 89.999999" height="120" preserveAspectRatio="xMidYMid meet" version="1.0"><defs><clipPath id="77c436d8d4"><path d="M -1.355469 80.207031 L 80.210938 -1.359375 L 91.203125 9.632812 L 9.636719 91.199219 Z M -1.355469 80.207031 " clip-rule="nonzero"/></clipPath><clipPath id="0653b73658"><path d="M 1.574219 77.277344 L 77.28125 1.570312 C 78.058594 0.792969 79.113281 0.355469 80.210938 0.355469 C 81.308594 0.355469 82.359375 0.792969 83.136719 1.570312 L 88.273438 6.707031 C 89.050781 7.484375 89.488281 8.535156 89.488281 9.632812 C 89.488281 10.730469 89.050781 11.785156 88.273438 12.5625 L 12.566406 88.269531 C 11.789062 89.046875 10.734375 89.484375 9.636719 89.484375 C 8.539062 89.484375 7.484375 89.046875 6.710938 88.269531 L 1.574219 83.132812 C 0.796875 82.359375 0.359375 81.304688 0.359375 80.207031 C 0.359375 79.109375 0.796875 78.054688 1.574219 77.277344 Z M 1.574219 77.277344 " clip-rule="nonzero"/></clipPath><clipPath id="00437de634"><path d="M 9.632812 -1.355469 L 91.199219 80.207031 L 80.207031 91.199219 L -1.359375 9.636719 Z M 9.632812 -1.355469 " clip-rule="nonzero"/></clipPath><clipPath id="c9982135ea"><path d="M 12.816406 1.824219 L 88.015625 77.027344 C 89.773438 78.785156 89.773438 81.632812 88.015625 83.390625 L 83.386719 88.019531 C 81.628906 89.773438 78.78125 89.773438 77.023438 88.019531 L 1.824219 12.816406 C 0.0664062 11.058594 0.0664062 8.210938 1.824219 6.453125 L 6.449219 1.824219 C 8.207031 0.0664062 11.058594 0.0664062 12.816406 1.824219 Z M 12.816406 1.824219 " clip-rule="nonzero"/></clipPath></defs><g clip-path="url(#77c436d8d4)"><g clip-path="url(#0653b73658)"><path fill="#ffffff" d="M -1.355469 80.207031 L 80.210938 -1.359375 L 91.203125 9.632812 L 9.636719 91.199219 Z M -1.355469 80.207031 " fill-opacity="1" fill-rule="nonzero"/></g></g><g clip-path="url(#00437de634)"><g clip-path="url(#c9982135ea)"><path fill="#ffffff" d="M 9.632812 -1.355469 L 91.199219 80.207031 L 80.207031 91.199219 L -1.359375 9.636719 Z M 9.632812 -1.355469 " fill-opacity="1" fill-rule="nonzero"/></g></g></svg>