<svg xmlns="http://www.w3.org/2000/svg" xmlns:xlink="http://www.w3.org/1999/xlink" width="120" zoomAndPan="magnify" viewBox="0 0 90 89.999999" height="120" preserveAspectRatio="xMidYMid meet" version="1.0"><defs><clipPath id="34a7c53b94"><path d="M 17.734375 -1.355469 L 91.199219 72.109375 L 72.105469 91.203125 L -1.359375 17.738281 Z M 17.734375 -1.355469 " clip-rule="nonzero"/></clipPath><clipPath id="e8af6a1836"><path d="M 20.660156 1.574219 L 88.269531 69.183594 C 89.046875 69.960938 89.484375 71.011719 89.484375 72.109375 C 89.484375 73.207031 89.046875 74.261719 88.269531 75.039062 L 75.035156 88.273438 C 74.257812 89.050781 73.203125 89.488281 72.105469 89.488281 C 71.007812 89.488281 69.957031 89.050781 69.179688 88.273438 L 1.570312 20.664062 C 0.792969 19.890625 0.355469 18.835938 0.355469 17.738281 C 0.355469 16.640625 0.792969 15.585938 1.570312 14.8125 L 14.808594 1.574219 C 15.582031 0.796875 16.636719 0.359375 17.734375 0.359375 C 18.832031 0.359375 19.886719 0.796875 20.660156 1.574219 Z M 20.660156 1.574219 " clip-rule="nonzero"/></clipPath><clipPath id="a0359319f5"><path d="M -1.359375 72.105469 L 72.105469 -1.359375 L 91.199219 17.734375 L 17.734375 91.195312 Z M -1.359375 72.105469 " clip-rule="nonzero"/></clipPath><clipPath id="6c61e676e8"><path d="M 1.570312 69.179688 L 69.179688 1.566406 C 69.957031 0.792969 71.007812 0.355469 72.105469 0.355469 C 73.203125 0.355469 74.257812 0.792969 75.035156 1.566406 L 88.269531 14.804688 C 89.046875 15.582031 89.484375 16.632812 89.484375 17.734375 C 89.484375 18.832031 89.046875 19.882812 88.269531 20.660156 L 20.660156 88.269531 C 19.886719 89.046875 18.832031 89.480469 17.734375 89.480469 C 16.636719 89.480469 15.582031 89.046875 14.808594 88.269531 L 1.570312 75.03125 C 0.792969 74.257812 0.355469 73.203125 0.355469 72.105469 C 0.355469 71.007812 0.792969 69.953125 1.570312 69.179688 Z M 1.570312 69.179688 " clip-rule="nonzero"/></clipPath></defs><g clip-path="url(#34a7c53b94)"><g clip-path="url(#e8af6a1836)"><path fill="#ffffff" d="M 17.734375 -1.355469 L 91.199219 72.109375 L 72.105469 91.203125 L -1.359375 17.738281 Z M 17.734375 -1.355469 " fill-opacity="1" fill-rule="nonzero"/></g></g><g clip-path="url(#a0359319f5)"><g clip-path="url(#6c61e676e8)"><path fill="#ffffff" d="M -1.359375 72.105469 L 72.105469 -1.359375 L 91.199219 17.734375 L 17.734375 91.195312 Z M -1.359375 72.105469 " fill-opacity="1" fill-rule="nonzero"/></g></g></svg>